<?xml version="1.0" encoding="UTF-8" ?>
<svg version="1.1" width="128" height="128" xmlns="http://www.w3.org/2000/svg" shape-rendering="crispEdges">
<rect x="6" y="4" width="1" height="1" fill="#222034" />
<rect x="7" y="4" width="1" height="1" fill="#222034" />
<rect x="8" y="4" width="1" height="1" fill="#222034" />
<rect x="9" y="4" width="1" height="1" fill="#222034" />
<rect x="22" y="4" width="1" height="1" fill="#EEC39A" />
<rect x="23" y="4" width="1" height="1" fill="#EEC39A" />
<rect x="24" y="4" width="1" height="1" fill="#EEC39A" />
<rect x="25" y="4" width="1" height="1" fill="#EEC39A" />
<rect x="38" y="4" width="1" height="1" fill="#D9A066" />
<rect x="39" y="4" width="1" height="1" fill="#D9A066" />
<rect x="40" y="4" width="1" height="1" fill="#D9A066" />
<rect x="41" y="4" width="1" height="1" fill="#D9A066" />
<rect x="54" y="4" width="1" height="1" fill="#8F563B" />
<rect x="55" y="4" width="1" height="1" fill="#8F563B" />
<rect x="56" y="4" width="1" height="1" fill="#8F563B" />
<rect x="57" y="4" width="1" height="1" fill="#8F563B" />
<rect x="70" y="4" width="1" height="1" fill="#FFFFFF" />
<rect x="71" y="4" width="1" height="1" fill="#FFFFFF" />
<rect x="72" y="4" width="1" height="1" fill="#FFFFFF" />
<rect x="73" y="4" width="1" height="1" fill="#FFFFFF" />
<rect x="5" y="5" width="1" height="1" fill="#222034" />
<rect x="6" y="5" width="1" height="1" fill="#222034" />
<rect x="7" y="5" width="1" height="1" fill="#222034" />
<rect x="8" y="5" width="1" height="1" fill="#222034" />
<rect x="9" y="5" width="1" height="1" fill="#222034" />
<rect x="21" y="5" width="1" height="1" fill="#EEC39A" />
<rect x="22" y="5" width="1" height="1" fill="#EEC39A" />
<rect x="23" y="5" width="1" height="1" fill="#EEC39A" />
<rect x="24" y="5" width="1" height="1" fill="#EEC39A" />
<rect x="25" y="5" width="1" height="1" fill="#EEC39A" />
<rect x="37" y="5" width="1" height="1" fill="#D9A066" />
<rect x="38" y="5" width="1" height="1" fill="#D9A066" />
<rect x="39" y="5" width="1" height="1" fill="#D9A066" />
<rect x="40" y="5" width="1" height="1" fill="#D9A066" />
<rect x="41" y="5" width="1" height="1" fill="#D9A066" />
<rect x="53" y="5" width="1" height="1" fill="#8F563B" />
<rect x="54" y="5" width="1" height="1" fill="#8F563B" />
<rect x="55" y="5" width="1" height="1" fill="#8F563B" />
<rect x="56" y="5" width="1" height="1" fill="#8F563B" />
<rect x="57" y="5" width="1" height="1" fill="#8F563B" />
<rect x="69" y="5" width="1" height="1" fill="#FFFFFF" />
<rect x="70" y="5" width="1" height="1" fill="#FFFFFF" />
<rect x="71" y="5" width="1" height="1" fill="#FFFFFF" />
<rect x="72" y="5" width="1" height="1" fill="#FFFFFF" />
<rect x="73" y="5" width="1" height="1" fill="#FFFFFF" />
<rect x="5" y="6" width="1" height="1" fill="#000000" />
<rect x="6" y="6" width="1" height="1" fill="#222034" />
<rect x="8" y="6" width="1" height="1" fill="#222034" />
<rect x="21" y="6" width="1" height="1" fill="#D9A066" />
<rect x="22" y="6" width="1" height="1" fill="#EEC39A" />
<rect x="24" y="6" width="1" height="1" fill="#EEC39A" />
<rect x="37" y="6" width="1" height="1" fill="#BC7A36" />
<rect x="38" y="6" width="1" height="1" fill="#D9A066" />
<rect x="40" y="6" width="1" height="1" fill="#D9A066" />
<rect x="53" y="6" width="1" height="1" fill="#663931" />
<rect x="54" y="6" width="1" height="1" fill="#8F563B" />
<rect x="56" y="6" width="1" height="1" fill="#8F563B" />
<rect x="69" y="6" width="1" height="1" fill="#9BADB7" />
<rect x="70" y="6" width="1" height="1" fill="#FFFFFF" />
<rect x="72" y="6" width="1" height="1" fill="#FFFFFF" />
<rect x="5" y="7" width="1" height="1" fill="#000000" />
<rect x="6" y="7" width="1" height="1" fill="#000000" />
<rect x="7" y="7" width="1" height="1" fill="#222034" />
<rect x="8" y="7" width="1" height="1" fill="#222034" />
<rect x="9" y="7" width="1" height="1" fill="#222034" />
<rect x="21" y="7" width="1" height="1" fill="#D9A066" />
<rect x="22" y="7" width="1" height="1" fill="#D9A066" />
<rect x="23" y="7" width="1" height="1" fill="#EEC39A" />
<rect x="24" y="7" width="1" height="1" fill="#EEC39A" />
<rect x="25" y="7" width="1" height="1" fill="#EEC39A" />
<rect x="37" y="7" width="1" height="1" fill="#BC7A36" />
<rect x="38" y="7" width="1" height="1" fill="#BC7A36" />
<rect x="39" y="7" width="1" height="1" fill="#D9A066" />
<rect x="40" y="7" width="1" height="1" fill="#D9A066" />
<rect x="41" y="7" width="1" height="1" fill="#D9A066" />
<rect x="53" y="7" width="1" height="1" fill="#663931" />
<rect x="54" y="7" width="1" height="1" fill="#663931" />
<rect x="55" y="7" width="1" height="1" fill="#8F563B" />
<rect x="56" y="7" width="1" height="1" fill="#8F563B" />
<rect x="57" y="7" width="1" height="1" fill="#8F563B" />
<rect x="69" y="7" width="1" height="1" fill="#9BADB7" />
<rect x="70" y="7" width="1" height="1" fill="#9BADB7" />
<rect x="71" y="7" width="1" height="1" fill="#FFFFFF" />
<rect x="72" y="7" width="1" height="1" fill="#FFFFFF" />
<rect x="73" y="7" width="1" height="1" fill="#FFFFFF" />
<rect x="6" y="8" width="1" height="1" fill="#000000" />
<rect x="7" y="8" width="1" height="1" fill="#000000" />
<rect x="8" y="8" width="1" height="1" fill="#000000" />
<rect x="12" y="8" width="1" height="1" fill="#222034" />
<rect x="22" y="8" width="1" height="1" fill="#D9A066" />
<rect x="23" y="8" width="1" height="1" fill="#D9A066" />
<rect x="24" y="8" width="1" height="1" fill="#D9A066" />
<rect x="28" y="8" width="1" height="1" fill="#EEC39A" />
<rect x="38" y="8" width="1" height="1" fill="#BC7A36" />
<rect x="39" y="8" width="1" height="1" fill="#BC7A36" />
<rect x="40" y="8" width="1" height="1" fill="#BC7A36" />
<rect x="44" y="8" width="1" height="1" fill="#D9A066" />
<rect x="54" y="8" width="1" height="1" fill="#663931" />
<rect x="55" y="8" width="1" height="1" fill="#663931" />
<rect x="56" y="8" width="1" height="1" fill="#663931" />
<rect x="60" y="8" width="1" height="1" fill="#8F563B" />
<rect x="70" y="8" width="1" height="1" fill="#9BADB7" />
<rect x="71" y="8" width="1" height="1" fill="#9BADB7" />
<rect x="72" y="8" width="1" height="1" fill="#9BADB7" />
<rect x="76" y="8" width="1" height="1" fill="#FFFFFF" />
<rect x="4" y="9" width="1" height="1" fill="#222034" />
<rect x="5" y="9" width="1" height="1" fill="#222034" />
<rect x="6" y="9" width="1" height="1" fill="#222034" />
<rect x="7" y="9" width="1" height="1" fill="#222034" />
<rect x="8" y="9" width="1" height="1" fill="#222034" />
<rect x="9" y="9" width="1" height="1" fill="#222034" />
<rect x="10" y="9" width="1" height="1" fill="#222034" />
<rect x="11" y="9" width="1" height="1" fill="#222034" />
<rect x="20" y="9" width="1" height="1" fill="#EEC39A" />
<rect x="21" y="9" width="1" height="1" fill="#EEC39A" />
<rect x="22" y="9" width="1" height="1" fill="#EEC39A" />
<rect x="23" y="9" width="1" height="1" fill="#EEC39A" />
<rect x="24" y="9" width="1" height="1" fill="#EEC39A" />
<rect x="25" y="9" width="1" height="1" fill="#EEC39A" />
<rect x="26" y="9" width="1" height="1" fill="#EEC39A" />
<rect x="27" y="9" width="1" height="1" fill="#EEC39A" />
<rect x="36" y="9" width="1" height="1" fill="#D9A066" />
<rect x="37" y="9" width="1" height="1" fill="#D9A066" />
<rect x="38" y="9" width="1" height="1" fill="#D9A066" />
<rect x="39" y="9" width="1" height="1" fill="#D9A066" />
<rect x="40" y="9" width="1" height="1" fill="#D9A066" />
<rect x="41" y="9" width="1" height="1" fill="#D9A066" />
<rect x="42" y="9" width="1" height="1" fill="#D9A066" />
<rect x="43" y="9" width="1" height="1" fill="#D9A066" />
<rect x="52" y="9" width="1" height="1" fill="#8F563B" />
<rect x="53" y="9" width="1" height="1" fill="#8F563B" />
<rect x="54" y="9" width="1" height="1" fill="#8F563B" />
<rect x="55" y="9" width="1" height="1" fill="#8F563B" />
<rect x="56" y="9" width="1" height="1" fill="#8F563B" />
<rect x="57" y="9" width="1" height="1" fill="#8F563B" />
<rect x="58" y="9" width="1" height="1" fill="#8F563B" />
<rect x="59" y="9" width="1" height="1" fill="#8F563B" />
<rect x="68" y="9" width="1" height="1" fill="#FFFFFF" />
<rect x="69" y="9" width="1" height="1" fill="#FFFFFF" />
<rect x="70" y="9" width="1" height="1" fill="#FFFFFF" />
<rect x="71" y="9" width="1" height="1" fill="#FFFFFF" />
<rect x="72" y="9" width="1" height="1" fill="#FFFFFF" />
<rect x="73" y="9" width="1" height="1" fill="#FFFFFF" />
<rect x="74" y="9" width="1" height="1" fill="#FFFFFF" />
<rect x="75" y="9" width="1" height="1" fill="#FFFFFF" />
<rect x="4" y="10" width="1" height="1" fill="#222034" />
<rect x="5" y="10" width="1" height="1" fill="#222034" />
<rect x="6" y="10" width="1" height="1" fill="#222034" />
<rect x="7" y="10" width="1" height="1" fill="#222034" />
<rect x="8" y="10" width="1" height="1" fill="#222034" />
<rect x="9" y="10" width="1" height="1" fill="#222034" />
<rect x="20" y="10" width="1" height="1" fill="#EEC39A" />
<rect x="21" y="10" width="1" height="1" fill="#EEC39A" />
<rect x="22" y="10" width="1" height="1" fill="#EEC39A" />
<rect x="23" y="10" width="1" height="1" fill="#EEC39A" />
<rect x="24" y="10" width="1" height="1" fill="#EEC39A" />
<rect x="25" y="10" width="1" height="1" fill="#EEC39A" />
<rect x="36" y="10" width="1" height="1" fill="#D9A066" />
<rect x="37" y="10" width="1" height="1" fill="#D9A066" />
<rect x="38" y="10" width="1" height="1" fill="#D9A066" />
<rect x="39" y="10" width="1" height="1" fill="#D9A066" />
<rect x="40" y="10" width="1" height="1" fill="#D9A066" />
<rect x="41" y="10" width="1" height="1" fill="#D9A066" />
<rect x="52" y="10" width="1" height="1" fill="#8F563B" />
<rect x="53" y="10" width="1" height="1" fill="#8F563B" />
<rect x="54" y="10" width="1" height="1" fill="#8F563B" />
<rect x="55" y="10" width="1" height="1" fill="#8F563B" />
<rect x="56" y="10" width="1" height="1" fill="#8F563B" />
<rect x="57" y="10" width="1" height="1" fill="#8F563B" />
<rect x="68" y="10" width="1" height="1" fill="#FFFFFF" />
<rect x="69" y="10" width="1" height="1" fill="#FFFFFF" />
<rect x="70" y="10" width="1" height="1" fill="#FFFFFF" />
<rect x="71" y="10" width="1" height="1" fill="#FFFFFF" />
<rect x="72" y="10" width="1" height="1" fill="#FFFFFF" />
<rect x="73" y="10" width="1" height="1" fill="#FFFFFF" />
<rect x="3" y="11" width="1" height="1" fill="#222034" />
<rect x="5" y="11" width="1" height="1" fill="#222034" />
<rect x="6" y="11" width="1" height="1" fill="#222034" />
<rect x="7" y="11" width="1" height="1" fill="#222034" />
<rect x="8" y="11" width="1" height="1" fill="#222034" />
<rect x="9" y="11" width="1" height="1" fill="#222034" />
<rect x="19" y="11" width="1" height="1" fill="#EEC39A" />
<rect x="21" y="11" width="1" height="1" fill="#EEC39A" />
<rect x="22" y="11" width="1" height="1" fill="#EEC39A" />
<rect x="23" y="11" width="1" height="1" fill="#EEC39A" />
<rect x="24" y="11" width="1" height="1" fill="#EEC39A" />
<rect x="25" y="11" width="1" height="1" fill="#EEC39A" />
<rect x="35" y="11" width="1" height="1" fill="#D9A066" />
<rect x="37" y="11" width="1" height="1" fill="#D9A066" />
<rect x="38" y="11" width="1" height="1" fill="#D9A066" />
<rect x="39" y="11" width="1" height="1" fill="#D9A066" />
<rect x="40" y="11" width="1" height="1" fill="#D9A066" />
<rect x="41" y="11" width="1" height="1" fill="#D9A066" />
<rect x="51" y="11" width="1" height="1" fill="#8F563B" />
<rect x="53" y="11" width="1" height="1" fill="#8F563B" />
<rect x="54" y="11" width="1" height="1" fill="#8F563B" />
<rect x="55" y="11" width="1" height="1" fill="#8F563B" />
<rect x="56" y="11" width="1" height="1" fill="#8F563B" />
<rect x="57" y="11" width="1" height="1" fill="#8F563B" />
<rect x="67" y="11" width="1" height="1" fill="#FFFFFF" />
<rect x="69" y="11" width="1" height="1" fill="#FFFFFF" />
<rect x="70" y="11" width="1" height="1" fill="#FFFFFF" />
<rect x="71" y="11" width="1" height="1" fill="#FFFFFF" />
<rect x="72" y="11" width="1" height="1" fill="#FFFFFF" />
<rect x="73" y="11" width="1" height="1" fill="#FFFFFF" />
<rect x="3" y="12" width="1" height="1" fill="#222034" />
<rect x="5" y="12" width="1" height="1" fill="#222034" />
<rect x="6" y="12" width="1" height="1" fill="#222034" />
<rect x="7" y="12" width="1" height="1" fill="#222034" />
<rect x="8" y="12" width="1" height="1" fill="#222034" />
<rect x="9" y="12" width="1" height="1" fill="#222034" />
<rect x="19" y="12" width="1" height="1" fill="#EEC39A" />
<rect x="21" y="12" width="1" height="1" fill="#EEC39A" />
<rect x="22" y="12" width="1" height="1" fill="#EEC39A" />
<rect x="23" y="12" width="1" height="1" fill="#EEC39A" />
<rect x="24" y="12" width="1" height="1" fill="#EEC39A" />
<rect x="25" y="12" width="1" height="1" fill="#EEC39A" />
<rect x="35" y="12" width="1" height="1" fill="#D9A066" />
<rect x="37" y="12" width="1" height="1" fill="#D9A066" />
<rect x="38" y="12" width="1" height="1" fill="#D9A066" />
<rect x="39" y="12" width="1" height="1" fill="#D9A066" />
<rect x="40" y="12" width="1" height="1" fill="#D9A066" />
<rect x="41" y="12" width="1" height="1" fill="#D9A066" />
<rect x="51" y="12" width="1" height="1" fill="#8F563B" />
<rect x="53" y="12" width="1" height="1" fill="#8F563B" />
<rect x="54" y="12" width="1" height="1" fill="#8F563B" />
<rect x="55" y="12" width="1" height="1" fill="#8F563B" />
<rect x="56" y="12" width="1" height="1" fill="#8F563B" />
<rect x="57" y="12" width="1" height="1" fill="#8F563B" />
<rect x="67" y="12" width="1" height="1" fill="#FFFFFF" />
<rect x="69" y="12" width="1" height="1" fill="#FFFFFF" />
<rect x="70" y="12" width="1" height="1" fill="#FFFFFF" />
<rect x="71" y="12" width="1" height="1" fill="#FFFFFF" />
<rect x="72" y="12" width="1" height="1" fill="#FFFFFF" />
<rect x="73" y="12" width="1" height="1" fill="#FFFFFF" />
<rect x="5" y="13" width="1" height="1" fill="#222034" />
<rect x="9" y="13" width="1" height="1" fill="#222034" />
<rect x="21" y="13" width="1" height="1" fill="#EEC39A" />
<rect x="25" y="13" width="1" height="1" fill="#EEC39A" />
<rect x="37" y="13" width="1" height="1" fill="#D9A066" />
<rect x="41" y="13" width="1" height="1" fill="#D9A066" />
<rect x="53" y="13" width="1" height="1" fill="#8F563B" />
<rect x="57" y="13" width="1" height="1" fill="#8F563B" />
<rect x="69" y="13" width="1" height="1" fill="#FFFFFF" />
<rect x="73" y="13" width="1" height="1" fill="#FFFFFF" />
<rect x="5" y="14" width="1" height="1" fill="#222034" />
<rect x="9" y="14" width="1" height="1" fill="#222034" />
<rect x="21" y="14" width="1" height="1" fill="#EEC39A" />
<rect x="25" y="14" width="1" height="1" fill="#EEC39A" />
<rect x="37" y="14" width="1" height="1" fill="#D9A066" />
<rect x="41" y="14" width="1" height="1" fill="#D9A066" />
<rect x="53" y="14" width="1" height="1" fill="#8F563B" />
<rect x="57" y="14" width="1" height="1" fill="#8F563B" />
<rect x="69" y="14" width="1" height="1" fill="#FFFFFF" />
<rect x="73" y="14" width="1" height="1" fill="#FFFFFF" />
<rect x="5" y="15" width="1" height="1" fill="#222034" />
<rect x="9" y="15" width="1" height="1" fill="#222034" />
<rect x="21" y="15" width="1" height="1" fill="#EEC39A" />
<rect x="25" y="15" width="1" height="1" fill="#EEC39A" />
<rect x="37" y="15" width="1" height="1" fill="#D9A066" />
<rect x="41" y="15" width="1" height="1" fill="#D9A066" />
<rect x="53" y="15" width="1" height="1" fill="#8F563B" />
<rect x="57" y="15" width="1" height="1" fill="#8F563B" />
<rect x="69" y="15" width="1" height="1" fill="#FFFFFF" />
<rect x="73" y="15" width="1" height="1" fill="#FFFFFF" />
<rect x="6" y="20" width="1" height="1" fill="#000000" />
<rect x="7" y="20" width="1" height="1" fill="#000000" />
<rect x="8" y="20" width="1" height="1" fill="#000000" />
<rect x="9" y="20" width="1" height="1" fill="#000000" />
<rect x="22" y="20" width="1" height="1" fill="#222034" />
<rect x="23" y="20" width="1" height="1" fill="#222034" />
<rect x="24" y="20" width="1" height="1" fill="#222034" />
<rect x="25" y="20" width="1" height="1" fill="#222034" />
<rect x="38" y="20" width="1" height="1" fill="#663931" />
<rect x="39" y="20" width="1" height="1" fill="#663931" />
<rect x="40" y="20" width="1" height="1" fill="#663931" />
<rect x="41" y="20" width="1" height="1" fill="#663931" />
<rect x="54" y="20" width="1" height="1" fill="#FFF759" />
<rect x="55" y="20" width="1" height="1" fill="#FFF759" />
<rect x="56" y="20" width="1" height="1" fill="#FFF759" />
<rect x="57" y="20" width="1" height="1" fill="#FFF759" />
<rect x="70" y="20" width="1" height="1" fill="#847E87" />
<rect x="71" y="20" width="1" height="1" fill="#847E87" />
<rect x="72" y="20" width="1" height="1" fill="#847E87" />
<rect x="73" y="20" width="1" height="1" fill="#847E87" />
<rect x="86" y="20" width="1" height="1" fill="#FFFFFF" />
<rect x="87" y="20" width="1" height="1" fill="#FFFFFF" />
<rect x="88" y="20" width="1" height="1" fill="#FFFFFF" />
<rect x="89" y="20" width="1" height="1" fill="#FFFFFF" />
<rect x="5" y="21" width="1" height="1" fill="#000000" />
<rect x="6" y="21" width="1" height="1" fill="#000000" />
<rect x="7" y="21" width="1" height="1" fill="#000000" />
<rect x="8" y="21" width="1" height="1" fill="#000000" />
<rect x="10" y="21" width="1" height="1" fill="#000000" />
<rect x="21" y="21" width="1" height="1" fill="#222034" />
<rect x="22" y="21" width="1" height="1" fill="#222034" />
<rect x="23" y="21" width="1" height="1" fill="#222034" />
<rect x="24" y="21" width="1" height="1" fill="#222034" />
<rect x="26" y="21" width="1" height="1" fill="#222034" />
<rect x="37" y="21" width="1" height="1" fill="#663931" />
<rect x="38" y="21" width="1" height="1" fill="#663931" />
<rect x="39" y="21" width="1" height="1" fill="#663931" />
<rect x="40" y="21" width="1" height="1" fill="#663931" />
<rect x="42" y="21" width="1" height="1" fill="#663931" />
<rect x="53" y="21" width="1" height="1" fill="#FFF759" />
<rect x="54" y="21" width="1" height="1" fill="#FFF759" />
<rect x="55" y="21" width="1" height="1" fill="#FFF759" />
<rect x="56" y="21" width="1" height="1" fill="#FFF759" />
<rect x="58" y="21" width="1" height="1" fill="#FFF759" />
<rect x="69" y="21" width="1" height="1" fill="#847E87" />
<rect x="70" y="21" width="1" height="1" fill="#847E87" />
<rect x="71" y="21" width="1" height="1" fill="#847E87" />
<rect x="72" y="21" width="1" height="1" fill="#847E87" />
<rect x="74" y="21" width="1" height="1" fill="#847E87" />
<rect x="85" y="21" width="1" height="1" fill="#FFFFFF" />
<rect x="86" y="21" width="1" height="1" fill="#FFFFFF" />
<rect x="87" y="21" width="1" height="1" fill="#FFFFFF" />
<rect x="88" y="21" width="1" height="1" fill="#FFFFFF" />
<rect x="90" y="21" width="1" height="1" fill="#FFFFFF" />
<rect x="6" y="22" width="1" height="1" fill="#000000" />
<rect x="10" y="22" width="1" height="1" fill="#000000" />
<rect x="22" y="22" width="1" height="1" fill="#222034" />
<rect x="26" y="22" width="1" height="1" fill="#222034" />
<rect x="38" y="22" width="1" height="1" fill="#663931" />
<rect x="42" y="22" width="1" height="1" fill="#663931" />
<rect x="54" y="22" width="1" height="1" fill="#FFF759" />
<rect x="58" y="22" width="1" height="1" fill="#FFF759" />
<rect x="70" y="22" width="1" height="1" fill="#847E87" />
<rect x="74" y="22" width="1" height="1" fill="#847E87" />
<rect x="86" y="22" width="1" height="1" fill="#FFFFFF" />
<rect x="90" y="22" width="1" height="1" fill="#FFFFFF" />
<rect x="5" y="23" width="1" height="1" fill="#000000" />
<rect x="21" y="23" width="1" height="1" fill="#222034" />
<rect x="37" y="23" width="1" height="1" fill="#663931" />
<rect x="53" y="23" width="1" height="1" fill="#FFF759" />
<rect x="69" y="23" width="1" height="1" fill="#847E87" />
<rect x="85" y="23" width="1" height="1" fill="#FFFFFF" />
<rect x="7" y="38" width="1" height="1" fill="#000000" />
<rect x="9" y="38" width="1" height="1" fill="#000000" />
<rect x="23" y="38" width="1" height="1" fill="#45283C" />
<rect x="25" y="38" width="1" height="1" fill="#45283C" />
<rect x="39" y="38" width="1" height="1" fill="#8F563B" />
<rect x="41" y="38" width="1" height="1" fill="#8F563B" />
<rect x="55" y="38" width="1" height="1" fill="#6ABE30" />
<rect x="57" y="38" width="1" height="1" fill="#6ABE30" />
<rect x="71" y="38" width="1" height="1" fill="#639BFF" />
<rect x="73" y="38" width="1" height="1" fill="#639BFF" />
<rect x="87" y="38" width="1" height="1" fill="#696A6A" />
<rect x="89" y="38" width="1" height="1" fill="#696A6A" />
<rect x="12" y="50" width="1" height="1" fill="#5FCDE4" />
<rect x="28" y="50" width="1" height="1" fill="#CBDBFC" />
<rect x="44" y="50" width="1" height="1" fill="#CBDBFC" />
<rect x="12" y="51" width="1" height="1" fill="#5FCDE4" />
<rect x="28" y="51" width="1" height="1" fill="#CBDBFC" />
<rect x="44" y="51" width="1" height="1" fill="#CBDBFC" />
<rect x="60" y="51" width="1" height="1" fill="#222034" />
<rect x="61" y="51" width="1" height="1" fill="#CBDBFC" />
<rect x="62" y="51" width="1" height="1" fill="#CBDBFC" />
<rect x="76" y="51" width="1" height="1" fill="#222034" />
<rect x="77" y="51" width="1" height="1" fill="#CBDBFC" />
<rect x="78" y="51" width="1" height="1" fill="#CBDBFC" />
<rect x="12" y="52" width="1" height="1" fill="#5FCDE4" />
<rect x="28" y="52" width="1" height="1" fill="#CBDBFC" />
<rect x="44" y="52" width="1" height="1" fill="#CBDBFC" />
<rect x="60" y="52" width="1" height="1" fill="#222034" />
<rect x="61" y="52" width="1" height="1" fill="#CBDBFC" />
<rect x="62" y="52" width="1" height="1" fill="#CBDBFC" />
<rect x="76" y="52" width="1" height="1" fill="#222034" />
<rect x="77" y="52" width="1" height="1" fill="#CBDBFC" />
<rect x="78" y="52" width="1" height="1" fill="#CBDBFC" />
<rect x="12" y="53" width="1" height="1" fill="#5FCDE4" />
<rect x="28" y="53" width="1" height="1" fill="#CBDBFC" />
<rect x="44" y="53" width="1" height="1" fill="#AC3232" />
<rect x="60" y="53" width="1" height="1" fill="#222034" />
<rect x="62" y="53" width="1" height="1" fill="#CBDBFC" />
<rect x="76" y="53" width="1" height="1" fill="#222034" />
<rect x="78" y="53" width="1" height="1" fill="#CBDBFC" />
<rect x="12" y="54" width="1" height="1" fill="#5FCDE4" />
<rect x="28" y="54" width="1" height="1" fill="#CBDBFC" />
<rect x="44" y="54" width="1" height="1" fill="#663931" />
<rect x="60" y="54" width="1" height="1" fill="#222034" />
<rect x="76" y="54" width="1" height="1" fill="#222034" />
<rect x="12" y="55" width="1" height="1" fill="#CBDBFC" />
<rect x="27" y="55" width="1" height="1" fill="#696A6A" />
<rect x="28" y="55" width="1" height="1" fill="#696A6A" />
<rect x="29" y="55" width="1" height="1" fill="#696A6A" />
<rect x="44" y="55" width="1" height="1" fill="#663931" />
<rect x="60" y="55" width="1" height="1" fill="#000000" />
<rect x="76" y="55" width="1" height="1" fill="#222034" />
<rect x="12" y="57" width="1" height="1" fill="#CBDBFC" />
<rect x="28" y="57" width="1" height="1" fill="#696A6A" />
<rect x="44" y="57" width="1" height="1" fill="#663931" />
<rect x="60" y="57" width="1" height="1" fill="#000000" />
<rect x="76" y="57" width="1" height="1" fill="#222034" />
<rect x="44" y="58" width="1" height="1" fill="#663931" />
<rect x="76" y="58" width="1" height="1" fill="#222034" />
<rect x="44" y="59" width="1" height="1" fill="#663931" />
<rect x="76" y="59" width="1" height="1" fill="#222034" />
<rect x="44" y="60" width="1" height="1" fill="#663931" />
<rect x="76" y="60" width="1" height="1" fill="#222034" />
<rect x="44" y="61" width="1" height="1" fill="#663931" />
<rect x="76" y="61" width="1" height="1" fill="#222034" />
<rect x="44" y="62" width="1" height="1" fill="#663931" />
<rect x="76" y="62" width="1" height="1" fill="#222034" />
<rect x="44" y="63" width="1" height="1" fill="#663931" />
<rect x="76" y="63" width="1" height="1" fill="#222034" />
<rect x="4" y="73" width="1" height="1" fill="#000000" />
<rect x="5" y="73" width="1" height="1" fill="#000000" />
<rect x="6" y="73" width="1" height="1" fill="#000000" />
<rect x="7" y="73" width="1" height="1" fill="#000000" />
<rect x="8" y="73" width="1" height="1" fill="#000000" />
<rect x="9" y="73" width="1" height="1" fill="#000000" />
<rect x="10" y="73" width="1" height="1" fill="#000000" />
<rect x="20" y="73" width="1" height="1" fill="#AC3232" />
<rect x="21" y="73" width="1" height="1" fill="#AC3232" />
<rect x="22" y="73" width="1" height="1" fill="#AC3232" />
<rect x="23" y="73" width="1" height="1" fill="#AC3232" />
<rect x="24" y="73" width="1" height="1" fill="#AC3232" />
<rect x="25" y="73" width="1" height="1" fill="#AC3232" />
<rect x="26" y="73" width="1" height="1" fill="#AC3232" />
<rect x="36" y="73" width="1" height="1" fill="#5B6EE1" />
<rect x="37" y="73" width="1" height="1" fill="#5B6EE1" />
<rect x="38" y="73" width="1" height="1" fill="#5B6EE1" />
<rect x="39" y="73" width="1" height="1" fill="#5B6EE1" />
<rect x="40" y="73" width="1" height="1" fill="#5B6EE1" />
<rect x="41" y="73" width="1" height="1" fill="#5B6EE1" />
<rect x="42" y="73" width="1" height="1" fill="#5B6EE1" />
<rect x="52" y="73" width="1" height="1" fill="#4B692F" />
<rect x="53" y="73" width="1" height="1" fill="#4B692F" />
<rect x="54" y="73" width="1" height="1" fill="#4B692F" />
<rect x="55" y="73" width="1" height="1" fill="#4B692F" />
<rect x="56" y="73" width="1" height="1" fill="#4B692F" />
<rect x="57" y="73" width="1" height="1" fill="#4B692F" />
<rect x="58" y="73" width="1" height="1" fill="#4B692F" />
<rect x="68" y="73" width="1" height="1" fill="#FBF236" />
<rect x="69" y="73" width="1" height="1" fill="#FBF236" />
<rect x="70" y="73" width="1" height="1" fill="#FBF236" />
<rect x="71" y="73" width="1" height="1" fill="#FBF236" />
<rect x="72" y="73" width="1" height="1" fill="#FBF236" />
<rect x="73" y="73" width="1" height="1" fill="#FBF236" />
<rect x="74" y="73" width="1" height="1" fill="#FBF236" />
<rect x="84" y="73" width="1" height="1" fill="#9BADB7" />
<rect x="85" y="73" width="1" height="1" fill="#9BADB7" />
<rect x="86" y="73" width="1" height="1" fill="#9BADB7" />
<rect x="87" y="73" width="1" height="1" fill="#9BADB7" />
<rect x="88" y="73" width="1" height="1" fill="#9BADB7" />
<rect x="89" y="73" width="1" height="1" fill="#9BADB7" />
<rect x="90" y="73" width="1" height="1" fill="#9BADB7" />
<rect x="100" y="73" width="1" height="1" fill="#76428A" />
<rect x="101" y="73" width="1" height="1" fill="#76428A" />
<rect x="102" y="73" width="1" height="1" fill="#76428A" />
<rect x="103" y="73" width="1" height="1" fill="#76428A" />
<rect x="104" y="73" width="1" height="1" fill="#76428A" />
<rect x="105" y="73" width="1" height="1" fill="#76428A" />
<rect x="106" y="73" width="1" height="1" fill="#76428A" />
<rect x="116" y="73" width="1" height="1" fill="#FFFFFF" />
<rect x="117" y="73" width="1" height="1" fill="#FFFFFF" />
<rect x="118" y="73" width="1" height="1" fill="#FFFFFF" />
<rect x="119" y="73" width="1" height="1" fill="#FFFFFF" />
<rect x="120" y="73" width="1" height="1" fill="#FFFFFF" />
<rect x="121" y="73" width="1" height="1" fill="#FFFFFF" />
<rect x="122" y="73" width="1" height="1" fill="#FFFFFF" />
<rect x="4" y="74" width="1" height="1" fill="#000000" />
<rect x="5" y="74" width="1" height="1" fill="#000000" />
<rect x="6" y="74" width="1" height="1" fill="#000000" />
<rect x="7" y="74" width="1" height="1" fill="#000000" />
<rect x="8" y="74" width="1" height="1" fill="#000000" />
<rect x="9" y="74" width="1" height="1" fill="#000000" />
<rect x="20" y="74" width="1" height="1" fill="#AC3232" />
<rect x="21" y="74" width="1" height="1" fill="#AC3232" />
<rect x="22" y="74" width="1" height="1" fill="#AC3232" />
<rect x="23" y="74" width="1" height="1" fill="#AC3232" />
<rect x="24" y="74" width="1" height="1" fill="#AC3232" />
<rect x="25" y="74" width="1" height="1" fill="#AC3232" />
<rect x="36" y="74" width="1" height="1" fill="#5B6EE1" />
<rect x="37" y="74" width="1" height="1" fill="#5B6EE1" />
<rect x="38" y="74" width="1" height="1" fill="#5B6EE1" />
<rect x="39" y="74" width="1" height="1" fill="#5B6EE1" />
<rect x="40" y="74" width="1" height="1" fill="#5B6EE1" />
<rect x="41" y="74" width="1" height="1" fill="#5B6EE1" />
<rect x="52" y="74" width="1" height="1" fill="#4B692F" />
<rect x="53" y="74" width="1" height="1" fill="#4B692F" />
<rect x="54" y="74" width="1" height="1" fill="#4B692F" />
<rect x="55" y="74" width="1" height="1" fill="#4B692F" />
<rect x="56" y="74" width="1" height="1" fill="#4B692F" />
<rect x="57" y="74" width="1" height="1" fill="#4B692F" />
<rect x="68" y="74" width="1" height="1" fill="#FBF236" />
<rect x="69" y="74" width="1" height="1" fill="#FBF236" />
<rect x="70" y="74" width="1" height="1" fill="#FBF236" />
<rect x="71" y="74" width="1" height="1" fill="#FBF236" />
<rect x="72" y="74" width="1" height="1" fill="#FBF236" />
<rect x="73" y="74" width="1" height="1" fill="#FBF236" />
<rect x="84" y="74" width="1" height="1" fill="#9BADB7" />
<rect x="85" y="74" width="1" height="1" fill="#9BADB7" />
<rect x="86" y="74" width="1" height="1" fill="#9BADB7" />
<rect x="87" y="74" width="1" height="1" fill="#9BADB7" />
<rect x="88" y="74" width="1" height="1" fill="#9BADB7" />
<rect x="89" y="74" width="1" height="1" fill="#9BADB7" />
<rect x="100" y="74" width="1" height="1" fill="#76428A" />
<rect x="101" y="74" width="1" height="1" fill="#76428A" />
<rect x="102" y="74" width="1" height="1" fill="#76428A" />
<rect x="103" y="74" width="1" height="1" fill="#76428A" />
<rect x="104" y="74" width="1" height="1" fill="#76428A" />
<rect x="105" y="74" width="1" height="1" fill="#76428A" />
<rect x="116" y="74" width="1" height="1" fill="#FFFFFF" />
<rect x="117" y="74" width="1" height="1" fill="#FFFFFF" />
<rect x="118" y="74" width="1" height="1" fill="#FFFFFF" />
<rect x="119" y="74" width="1" height="1" fill="#FFFFFF" />
<rect x="120" y="74" width="1" height="1" fill="#FFFFFF" />
<rect x="121" y="74" width="1" height="1" fill="#FFFFFF" />
<rect x="5" y="75" width="1" height="1" fill="#663931" />
<rect x="6" y="75" width="1" height="1" fill="#663931" />
<rect x="7" y="75" width="1" height="1" fill="#663931" />
<rect x="8" y="75" width="1" height="1" fill="#9BADB7" />
<rect x="9" y="75" width="1" height="1" fill="#663931" />
<rect x="21" y="75" width="1" height="1" fill="#663931" />
<rect x="22" y="75" width="1" height="1" fill="#663931" />
<rect x="23" y="75" width="1" height="1" fill="#663931" />
<rect x="24" y="75" width="1" height="1" fill="#9BADB7" />
<rect x="25" y="75" width="1" height="1" fill="#663931" />
<rect x="37" y="75" width="1" height="1" fill="#663931" />
<rect x="38" y="75" width="1" height="1" fill="#663931" />
<rect x="39" y="75" width="1" height="1" fill="#663931" />
<rect x="40" y="75" width="1" height="1" fill="#9BADB7" />
<rect x="41" y="75" width="1" height="1" fill="#663931" />
<rect x="53" y="75" width="1" height="1" fill="#663931" />
<rect x="54" y="75" width="1" height="1" fill="#663931" />
<rect x="55" y="75" width="1" height="1" fill="#663931" />
<rect x="56" y="75" width="1" height="1" fill="#9BADB7" />
<rect x="57" y="75" width="1" height="1" fill="#663931" />
<rect x="69" y="75" width="1" height="1" fill="#663931" />
<rect x="70" y="75" width="1" height="1" fill="#663931" />
<rect x="71" y="75" width="1" height="1" fill="#663931" />
<rect x="72" y="75" width="1" height="1" fill="#9BADB7" />
<rect x="73" y="75" width="1" height="1" fill="#663931" />
<rect x="85" y="75" width="1" height="1" fill="#663931" />
<rect x="86" y="75" width="1" height="1" fill="#663931" />
<rect x="87" y="75" width="1" height="1" fill="#663931" />
<rect x="88" y="75" width="1" height="1" fill="#9BADB7" />
<rect x="89" y="75" width="1" height="1" fill="#663931" />
<rect x="101" y="75" width="1" height="1" fill="#663931" />
<rect x="102" y="75" width="1" height="1" fill="#663931" />
<rect x="103" y="75" width="1" height="1" fill="#663931" />
<rect x="104" y="75" width="1" height="1" fill="#9BADB7" />
<rect x="105" y="75" width="1" height="1" fill="#663931" />
<rect x="117" y="75" width="1" height="1" fill="#663931" />
<rect x="118" y="75" width="1" height="1" fill="#663931" />
<rect x="119" y="75" width="1" height="1" fill="#663931" />
<rect x="120" y="75" width="1" height="1" fill="#9BADB7" />
<rect x="121" y="75" width="1" height="1" fill="#663931" />
<rect x="6" y="88" width="1" height="1" fill="#000000" />
<rect x="9" y="88" width="1" height="1" fill="#000000" />
<rect x="22" y="88" width="1" height="1" fill="#663931" />
<rect x="25" y="88" width="1" height="1" fill="#663931" />
<rect x="38" y="88" width="1" height="1" fill="#306082" />
<rect x="41" y="88" width="1" height="1" fill="#306082" />
<rect x="54" y="88" width="1" height="1" fill="#524B24" />
<rect x="57" y="88" width="1" height="1" fill="#524B24" />
<rect x="70" y="88" width="1" height="1" fill="#FFFFFF" />
<rect x="73" y="88" width="1" height="1" fill="#FFFFFF" />
<rect x="86" y="88" width="1" height="1" fill="#696A6A" />
<rect x="89" y="88" width="1" height="1" fill="#696A6A" />
<rect x="102" y="88" width="1" height="1" fill="#222034" />
<rect x="105" y="88" width="1" height="1" fill="#222034" />
<rect x="118" y="88" width="1" height="1" fill="#9BADB7" />
<rect x="121" y="88" width="1" height="1" fill="#9BADB7" />
<rect x="4" y="89" width="1" height="1" fill="#222034" />
<rect x="5" y="89" width="1" height="1" fill="#222034" />
<rect x="6" y="89" width="1" height="1" fill="#222034" />
<rect x="9" y="89" width="1" height="1" fill="#222034" />
<rect x="10" y="89" width="1" height="1" fill="#222034" />
<rect x="11" y="89" width="1" height="1" fill="#222034" />
<rect x="20" y="89" width="1" height="1" fill="#AC3232" />
<rect x="21" y="89" width="1" height="1" fill="#AC3232" />
<rect x="22" y="89" width="1" height="1" fill="#AC3232" />
<rect x="25" y="89" width="1" height="1" fill="#AC3232" />
<rect x="26" y="89" width="1" height="1" fill="#AC3232" />
<rect x="27" y="89" width="1" height="1" fill="#AC3232" />
<rect x="36" y="89" width="1" height="1" fill="#5B6EE1" />
<rect x="37" y="89" width="1" height="1" fill="#5B6EE1" />
<rect x="38" y="89" width="1" height="1" fill="#5B6EE1" />
<rect x="41" y="89" width="1" height="1" fill="#5B6EE1" />
<rect x="42" y="89" width="1" height="1" fill="#5B6EE1" />
<rect x="43" y="89" width="1" height="1" fill="#5B6EE1" />
<rect x="52" y="89" width="1" height="1" fill="#4B692F" />
<rect x="53" y="89" width="1" height="1" fill="#4B692F" />
<rect x="54" y="89" width="1" height="1" fill="#4B692F" />
<rect x="57" y="89" width="1" height="1" fill="#4B692F" />
<rect x="58" y="89" width="1" height="1" fill="#4B692F" />
<rect x="59" y="89" width="1" height="1" fill="#4B692F" />
<rect x="68" y="89" width="1" height="1" fill="#FBF236" />
<rect x="69" y="89" width="1" height="1" fill="#FBF236" />
<rect x="70" y="89" width="1" height="1" fill="#FBF236" />
<rect x="73" y="89" width="1" height="1" fill="#FBF236" />
<rect x="74" y="89" width="1" height="1" fill="#FBF236" />
<rect x="75" y="89" width="1" height="1" fill="#FBF236" />
<rect x="84" y="89" width="1" height="1" fill="#9BADB7" />
<rect x="85" y="89" width="1" height="1" fill="#9BADB7" />
<rect x="86" y="89" width="1" height="1" fill="#9BADB7" />
<rect x="89" y="89" width="1" height="1" fill="#9BADB7" />
<rect x="90" y="89" width="1" height="1" fill="#9BADB7" />
<rect x="91" y="89" width="1" height="1" fill="#9BADB7" />
<rect x="100" y="89" width="1" height="1" fill="#76428A" />
<rect x="101" y="89" width="1" height="1" fill="#76428A" />
<rect x="102" y="89" width="1" height="1" fill="#76428A" />
<rect x="105" y="89" width="1" height="1" fill="#76428A" />
<rect x="106" y="89" width="1" height="1" fill="#76428A" />
<rect x="107" y="89" width="1" height="1" fill="#76428A" />
<rect x="116" y="89" width="1" height="1" fill="#FFFFFF" />
<rect x="117" y="89" width="1" height="1" fill="#FFFFFF" />
<rect x="118" y="89" width="1" height="1" fill="#FFFFFF" />
<rect x="121" y="89" width="1" height="1" fill="#FFFFFF" />
<rect x="122" y="89" width="1" height="1" fill="#FFFFFF" />
<rect x="123" y="89" width="1" height="1" fill="#FFFFFF" />
<rect x="4" y="90" width="1" height="1" fill="#222034" />
<rect x="5" y="90" width="1" height="1" fill="#222034" />
<rect x="6" y="90" width="1" height="1" fill="#222034" />
<rect x="9" y="90" width="1" height="1" fill="#222034" />
<rect x="20" y="90" width="1" height="1" fill="#AC3232" />
<rect x="21" y="90" width="1" height="1" fill="#AC3232" />
<rect x="22" y="90" width="1" height="1" fill="#AC3232" />
<rect x="25" y="90" width="1" height="1" fill="#AC3232" />
<rect x="36" y="90" width="1" height="1" fill="#5B6EE1" />
<rect x="37" y="90" width="1" height="1" fill="#5B6EE1" />
<rect x="38" y="90" width="1" height="1" fill="#5B6EE1" />
<rect x="41" y="90" width="1" height="1" fill="#5B6EE1" />
<rect x="52" y="90" width="1" height="1" fill="#4B692F" />
<rect x="53" y="90" width="1" height="1" fill="#4B692F" />
<rect x="54" y="90" width="1" height="1" fill="#4B692F" />
<rect x="57" y="90" width="1" height="1" fill="#4B692F" />
<rect x="68" y="90" width="1" height="1" fill="#FBF236" />
<rect x="69" y="90" width="1" height="1" fill="#FBF236" />
<rect x="70" y="90" width="1" height="1" fill="#FBF236" />
<rect x="73" y="90" width="1" height="1" fill="#FBF236" />
<rect x="84" y="90" width="1" height="1" fill="#9BADB7" />
<rect x="85" y="90" width="1" height="1" fill="#9BADB7" />
<rect x="86" y="90" width="1" height="1" fill="#9BADB7" />
<rect x="89" y="90" width="1" height="1" fill="#9BADB7" />
<rect x="100" y="90" width="1" height="1" fill="#76428A" />
<rect x="101" y="90" width="1" height="1" fill="#76428A" />
<rect x="102" y="90" width="1" height="1" fill="#76428A" />
<rect x="105" y="90" width="1" height="1" fill="#76428A" />
<rect x="116" y="90" width="1" height="1" fill="#FFFFFF" />
<rect x="117" y="90" width="1" height="1" fill="#FFFFFF" />
<rect x="118" y="90" width="1" height="1" fill="#FFFFFF" />
<rect x="121" y="90" width="1" height="1" fill="#FFFFFF" />
<rect x="3" y="91" width="1" height="1" fill="#000000" />
<rect x="5" y="91" width="1" height="1" fill="#222034" />
<rect x="6" y="91" width="1" height="1" fill="#222034" />
<rect x="9" y="91" width="1" height="1" fill="#222034" />
<rect x="19" y="91" width="1" height="1" fill="#663931" />
<rect x="21" y="91" width="1" height="1" fill="#AC3232" />
<rect x="22" y="91" width="1" height="1" fill="#AC3232" />
<rect x="25" y="91" width="1" height="1" fill="#AC3232" />
<rect x="35" y="91" width="1" height="1" fill="#306082" />
<rect x="37" y="91" width="1" height="1" fill="#5B6EE1" />
<rect x="38" y="91" width="1" height="1" fill="#5B6EE1" />
<rect x="41" y="91" width="1" height="1" fill="#5B6EE1" />
<rect x="51" y="91" width="1" height="1" fill="#524B24" />
<rect x="53" y="91" width="1" height="1" fill="#4B692F" />
<rect x="54" y="91" width="1" height="1" fill="#4B692F" />
<rect x="57" y="91" width="1" height="1" fill="#4B692F" />
<rect x="67" y="91" width="1" height="1" fill="#FFFFFF" />
<rect x="69" y="91" width="1" height="1" fill="#FBF236" />
<rect x="70" y="91" width="1" height="1" fill="#FBF236" />
<rect x="73" y="91" width="1" height="1" fill="#FBF236" />
<rect x="83" y="91" width="1" height="1" fill="#696A6A" />
<rect x="85" y="91" width="1" height="1" fill="#9BADB7" />
<rect x="86" y="91" width="1" height="1" fill="#9BADB7" />
<rect x="89" y="91" width="1" height="1" fill="#9BADB7" />
<rect x="99" y="91" width="1" height="1" fill="#222034" />
<rect x="101" y="91" width="1" height="1" fill="#76428A" />
<rect x="102" y="91" width="1" height="1" fill="#76428A" />
<rect x="105" y="91" width="1" height="1" fill="#76428A" />
<rect x="115" y="91" width="1" height="1" fill="#9BADB7" />
<rect x="117" y="91" width="1" height="1" fill="#FFFFFF" />
<rect x="118" y="91" width="1" height="1" fill="#FFFFFF" />
<rect x="121" y="91" width="1" height="1" fill="#FFFFFF" />
<rect x="5" y="92" width="1" height="1" fill="#000000" />
<rect x="6" y="92" width="1" height="1" fill="#000000" />
<rect x="9" y="92" width="1" height="1" fill="#000000" />
<rect x="21" y="92" width="1" height="1" fill="#663931" />
<rect x="22" y="92" width="1" height="1" fill="#663931" />
<rect x="25" y="92" width="1" height="1" fill="#663931" />
<rect x="37" y="92" width="1" height="1" fill="#306082" />
<rect x="38" y="92" width="1" height="1" fill="#306082" />
<rect x="41" y="92" width="1" height="1" fill="#306082" />
<rect x="53" y="92" width="1" height="1" fill="#524B24" />
<rect x="54" y="92" width="1" height="1" fill="#524B24" />
<rect x="57" y="92" width="1" height="1" fill="#524B24" />
<rect x="69" y="92" width="1" height="1" fill="#FFFFFF" />
<rect x="70" y="92" width="1" height="1" fill="#FFFFFF" />
<rect x="73" y="92" width="1" height="1" fill="#FFFFFF" />
<rect x="85" y="92" width="1" height="1" fill="#696A6A" />
<rect x="86" y="92" width="1" height="1" fill="#696A6A" />
<rect x="89" y="92" width="1" height="1" fill="#696A6A" />
<rect x="101" y="92" width="1" height="1" fill="#222034" />
<rect x="102" y="92" width="1" height="1" fill="#222034" />
<rect x="105" y="92" width="1" height="1" fill="#222034" />
<rect x="117" y="92" width="1" height="1" fill="#9BADB7" />
<rect x="118" y="92" width="1" height="1" fill="#9BADB7" />
<rect x="121" y="92" width="1" height="1" fill="#9BADB7" />
<rect x="5" y="108" width="1" height="1" fill="#000000" />
<rect x="6" y="108" width="1" height="1" fill="#000000" />
<rect x="7" y="108" width="1" height="1" fill="#000000" />
<rect x="8" y="108" width="1" height="1" fill="#000000" />
<rect x="9" y="108" width="1" height="1" fill="#000000" />
<rect x="21" y="108" width="1" height="1" fill="#862727" />
<rect x="22" y="108" width="1" height="1" fill="#862727" />
<rect x="23" y="108" width="1" height="1" fill="#862727" />
<rect x="24" y="108" width="1" height="1" fill="#862727" />
<rect x="25" y="108" width="1" height="1" fill="#862727" />
<rect x="37" y="108" width="1" height="1" fill="#306082" />
<rect x="38" y="108" width="1" height="1" fill="#306082" />
<rect x="39" y="108" width="1" height="1" fill="#306082" />
<rect x="40" y="108" width="1" height="1" fill="#306082" />
<rect x="41" y="108" width="1" height="1" fill="#306082" />
<rect x="53" y="108" width="1" height="1" fill="#323C39" />
<rect x="54" y="108" width="1" height="1" fill="#323C39" />
<rect x="55" y="108" width="1" height="1" fill="#323C39" />
<rect x="56" y="108" width="1" height="1" fill="#323C39" />
<rect x="57" y="108" width="1" height="1" fill="#323C39" />
<rect x="69" y="108" width="1" height="1" fill="#DF7126" />
<rect x="70" y="108" width="1" height="1" fill="#DF7126" />
<rect x="71" y="108" width="1" height="1" fill="#DF7126" />
<rect x="72" y="108" width="1" height="1" fill="#DF7126" />
<rect x="73" y="108" width="1" height="1" fill="#DF7126" />
<rect x="85" y="108" width="1" height="1" fill="#595652" />
<rect x="86" y="108" width="1" height="1" fill="#595652" />
<rect x="87" y="108" width="1" height="1" fill="#595652" />
<rect x="88" y="108" width="1" height="1" fill="#595652" />
<rect x="89" y="108" width="1" height="1" fill="#595652" />
<rect x="101" y="108" width="1" height="1" fill="#3F3F74" />
<rect x="102" y="108" width="1" height="1" fill="#3F3F74" />
<rect x="103" y="108" width="1" height="1" fill="#3F3F74" />
<rect x="104" y="108" width="1" height="1" fill="#3F3F74" />
<rect x="105" y="108" width="1" height="1" fill="#3F3F74" />
<rect x="117" y="108" width="1" height="1" fill="#696A6A" />
<rect x="118" y="108" width="1" height="1" fill="#696A6A" />
<rect x="119" y="108" width="1" height="1" fill="#696A6A" />
<rect x="120" y="108" width="1" height="1" fill="#696A6A" />
<rect x="121" y="108" width="1" height="1" fill="#696A6A" />
<rect x="5" y="109" width="1" height="1" fill="#000000" />
<rect x="9" y="109" width="1" height="1" fill="#000000" />
<rect x="21" y="109" width="1" height="1" fill="#862727" />
<rect x="25" y="109" width="1" height="1" fill="#862727" />
<rect x="37" y="109" width="1" height="1" fill="#306082" />
<rect x="41" y="109" width="1" height="1" fill="#306082" />
<rect x="53" y="109" width="1" height="1" fill="#323C39" />
<rect x="57" y="109" width="1" height="1" fill="#323C39" />
<rect x="69" y="109" width="1" height="1" fill="#DF7126" />
<rect x="73" y="109" width="1" height="1" fill="#DF7126" />
<rect x="85" y="109" width="1" height="1" fill="#595652" />
<rect x="89" y="109" width="1" height="1" fill="#595652" />
<rect x="101" y="109" width="1" height="1" fill="#3F3F74" />
<rect x="105" y="109" width="1" height="1" fill="#3F3F74" />
<rect x="117" y="109" width="1" height="1" fill="#696A6A" />
<rect x="121" y="109" width="1" height="1" fill="#696A6A" />
<rect x="5" y="110" width="1" height="1" fill="#000000" />
<rect x="9" y="110" width="1" height="1" fill="#000000" />
<rect x="21" y="110" width="1" height="1" fill="#862727" />
<rect x="25" y="110" width="1" height="1" fill="#862727" />
<rect x="37" y="110" width="1" height="1" fill="#306082" />
<rect x="41" y="110" width="1" height="1" fill="#306082" />
<rect x="53" y="110" width="1" height="1" fill="#323C39" />
<rect x="57" y="110" width="1" height="1" fill="#323C39" />
<rect x="69" y="110" width="1" height="1" fill="#DF7126" />
<rect x="73" y="110" width="1" height="1" fill="#DF7126" />
<rect x="85" y="110" width="1" height="1" fill="#595652" />
<rect x="89" y="110" width="1" height="1" fill="#595652" />
<rect x="101" y="110" width="1" height="1" fill="#3F3F74" />
<rect x="105" y="110" width="1" height="1" fill="#3F3F74" />
<rect x="117" y="110" width="1" height="1" fill="#696A6A" />
<rect x="121" y="110" width="1" height="1" fill="#696A6A" />
<rect x="5" y="127" width="1" height="1" fill="#000000" />
<rect x="9" y="127" width="1" height="1" fill="#000000" />
<rect x="21" y="127" width="1" height="1" fill="#AC3232" />
<rect x="25" y="127" width="1" height="1" fill="#AC3232" />
<rect x="37" y="127" width="1" height="1" fill="#5B6EE1" />
<rect x="41" y="127" width="1" height="1" fill="#5B6EE1" />
<rect x="53" y="127" width="1" height="1" fill="#4B692F" />
<rect x="57" y="127" width="1" height="1" fill="#4B692F" />
<rect x="69" y="127" width="1" height="1" fill="#FBF236" />
<rect x="73" y="127" width="1" height="1" fill="#FBF236" />
<rect x="85" y="127" width="1" height="1" fill="#9BADB7" />
<rect x="89" y="127" width="1" height="1" fill="#9BADB7" />
<rect x="101" y="127" width="1" height="1" fill="#76428A" />
<rect x="105" y="127" width="1" height="1" fill="#76428A" />
<rect x="117" y="127" width="1" height="1" fill="#FFFFFF" />
<rect x="121" y="127" width="1" height="1" fill="#FFFFFF" />
</svg>